<?xml version="1.0" encoding="iso-8859-1"?>
<svg xmlns="http://www.w3.org/2000/svg" xmlns:xlink="http://www.w3.org/1999/xlink" version="1.1" id="Layer_1" x="0px" y="0px" width="512" height="512" viewBox="0 0 128 128" style="enable-background:new 0 0 128 128;" xml:space="preserve">
<g>
	<circle style="fill:#E16B5A;" cx="64" cy="64" r="64"/>
	<g>
		<path style="fill:#FFD464;" d="M102,78c3.294,0,6-2.702,6-6c0-3.299-3.018-6.688-6-9c-2.991,2.313-6,5.701-6,9    C96,75.298,98.697,78,102,78z"/>
		<path style="fill:#F2CA5F;" d="M102,63c-0.141,0.108-0.279,0.221-0.42,0.334C103.961,65.52,106,68.289,106,71c0,3.298-2.706,6-6,6    c-0.561,0-1.102-0.083-1.617-0.229C99.391,77.538,100.643,78,102,78c3.294,0,6-2.702,6-6C108,68.701,104.982,65.313,102,63z"/>
		<path style="fill:#B3B3B3;" d="M51,56.376c-0.552,0-1-0.448-1-1V49c0-0.552,0.448-1,1-1s1,0.448,1,1v6.376    C52,55.929,51.552,56.376,51,56.376z"/>
		<path style="fill:#E6E6E6;" d="M57,50H45c-1.104,0-2-0.896-2-2s0.896-2,2-2h12c1.104,0,2,0.896,2,2S58.104,50,57,50z"/>
		<path style="fill:#E6E6E6;" d="M32,73h-5c-3.86,0-7-3.141-7-7c0-3.86,3.14-7,7-7h4c1.104,0,2,0.896,2,2s-0.896,2-2,2h-4    c-1.654,0-3,1.346-3,3c0,1.654,1.346,3,3,3h5c1.104,0,2,0.896,2,2S33.104,73,32,73z"/>
		<path style="fill:#CCCCCC;" d="M71,85c0,2.2-1.8,4-4,4H35c-2.2,0-4-1.8-4-4V58c0-2.2,1.8-4,4-4h32c2.2,0,4,1.8,4,4V85z"/>
		<path style="fill:#BFBFBF;" d="M67,54h-4c2.2,0,4,1.8,4,4v27c0,2.2-1.8,4-4,4h4c2.2,0,4-1.8,4-4V58C71,55.8,69.2,54,67,54z"/>
		<polygon style="fill:#E6E6E6;" points="101,55.761 71,59.094 71,71.376 101,58.043   "/>
		<polygon style="fill:#CCCCCC;" points="99,55.983 99,58.043 71,70.488 71,71.376 101,58.043 101,55.761   "/>
	</g>
	<path style="fill:#263740;" d="M5.069,89c9.738,22.923,32.456,39,58.931,39c26.475,0,49.193-16.077,58.932-39H5.069z"/>
	<path style="fill:#1E2C33;" d="M122.932,89H5.069c0.578,1.361,1.216,2.689,1.884,4h114.094   C121.714,91.689,122.354,90.361,122.932,89z"/>
</g>
</svg>
