<svg xmlns ="http://www.w3.org/2000/svg" viewBox="0 0 162 162">

<!-- ==============================================================  -->
<!--    Apskritimas  /  SVG  /  "oranžinis" / stiliaus aprašymas     -->
<!-- ==============================================================  -->

<defs>
<style>
  .cls-1{fill:#f1f1f1; stroke:#f15a24; stroke-miterlimit:5;stroke-width:3px;}
  <!-- .cls-2{fill:#f15a24;} -->
</style>
</defs>

<title>Apskritimas pirmas</title>

<!-- ==============================================================  -->
<!--                Apskritimas  /  SVG  /  "oranžinis"              -->
<!-- ==============================================================  -->

<circle class="cls-1" cx="30" cy="30" r="20" />

<!-- ==============================================================  -->
<!--                           Ūsai   SVG                            -->
<!-- ==============================================================  -->

<!-- <path class="cls-2" d="M40.83 53h1.06a124.22 124.22 0 0 1 23.4 3.28 66.18 66.18 0 0 0 29.42.8c6.32-1.26 12.67-2.26 19-3.38a40.89 40.89 0 0 1 7-.71h6a8.11 8.11 0 0 1 1.16.07c1 .15 2.1.73 3.15.87C129.3 52.41 126.86 52 124 52H38.23a12.08 12.08 0 0 0-7.54 2.09C32.85 53.76 35 5337.22 53zM134.46 106.06l-.47-6c-2.81 2-7.21 3.12-11.34 3.53a33.2 33.2 0 0 1-20.11-4 23.44 23.44 0 0 1-7-6.15c-.28 0-3.84-6.55-3.84-6.55
0-.23-.22-.46-.33-.69-1.5-3.44-2.59-7.06-3.88-10.59s-2.3-4.27-6.07-4.38h-1.2a2.43 2.43 0 0 0-2.5 1.53 45.71 45.71 0 0 0-2 5.52C74 85.12 70.09 90.35 65.34 95.53c-3.46 3.77-32.5 6.91-36.3 5.08-.7-.33-2-.72-2-1.11v6.07a150.13 150.13 0 0 0 18.62 3.14l6.43 10.41 7.81-13.74h.43a165.79 165.79 0 0 1 21.17-1.3c5.6 0 11.18.28 16.56.81l.81.08 8 14.31 6.71-10.68a142 142 0 0 0 20.88-2.54z"/> -->

<!--                    Anttra dalis == usai + barzda ==                 -->
<!-- 
<path class = "cls-2" d = "M64.13
63.7c-5.72.92-11.88-3.86-18.67-3.77-2.23.18-4.91.26-7.53.66a62.29 62.29 0 0 0-8.8 1.9c-3.64 1.12-5.4 3.81-5.46 7.61a44.51 44.51 0 0 0 3.63 17.7 13.09 13.09 0 0 0 8.7 7.8 31.17 31.17 0 0 0 8.81 1.2c0-1.22.18-2.34.18-2.89V81.78c0-6.33 4.61-11.48 10.82-11.48 6 0 10.62 4.85 10.89 10.92a37 37 0 0 0 2.29-8c.78-4.31-.93-7.52-4.86-9.52zM134.74 87.59a38.83 38.83 0 0 0 3.53-18 5.94 5.94 0 0 0-3.09-5 14.38 14.38 0 0
0-4.41-1.77c-4.3-.75-13-1.66-13-1.58A37 37 0 0 0 102.11 64c-4.38 1.82-6.29 4.47-6 8.65a10.78 10.78 0 0 1 6.71-2.35A11.31 11.31 0 0 1 114 81.78v12.13c0 .35.11.71.13 1.05 0 0 .05.09.06.15a28.42 28.42 0 0 0 11.32-.35 12.34 12.34 0 0 0 9.23-7.17z"/> -->



</svg>
