<?xml version="1.0" encoding="iso-8859-1"?>
<svg xmlns="http://www.w3.org/2000/svg" xmlns:xlink="http://www.w3.org/1999/xlink" version="1.1" id="Layer_1" x="0px" y="0px" width="512" height="512" viewBox="0 0 128 128" style="enable-background:new 0 0 128 128;" xml:space="preserve">
<g>
	<circle style="fill:#88C5CC;" cx="64" cy="64" r="64"/>
	<path style="fill:#80B9BF;" d="M122.645,89.633l-22.424-55.269c0,0-7.07-7.071-8.484-8.485c-1.416-1.414-2.829-1.414-4.243,0   c-9.209,9.208-36.76,36.759-40.562,40.563l-1.773-3.884L29.686,78.029c-2.924,2.925-3.497,6.806-1.944,10.203   c0.063,0.162,0.122,0.322,0.194,0.481c0.064,0.164,0.124,0.328,0.198,0.49c0.064,0.162,0.123,0.325,0.196,0.485   c0.063,0.16,0.121,0.32,0.193,0.479c0.064,0.165,0.125,0.33,0.199,0.492c0.063,0.162,0.123,0.324,0.196,0.484   c0.063,0.162,0.122,0.322,0.194,0.481c0.064,0.164,0.124,0.328,0.198,0.49c0.064,0.161,0.123,0.325,0.196,0.485   c0.063,0.159,0.121,0.32,0.193,0.479c0.064,0.164,0.125,0.33,0.199,0.492c0.063,0.162,0.123,0.324,0.196,0.484   c0.063,0.161,0.122,0.322,0.194,0.481c0.064,0.164,0.124,0.328,0.198,0.489c0.063,0.162,0.123,0.324,0.195,0.484   c0.063,0.161,0.122,0.324,0.195,0.483c0.064,0.164,0.125,0.328,0.198,0.489c0.063,0.162,0.123,0.326,0.196,0.486   c0.063,0.16,0.122,0.321,0.194,0.48c0.064,0.164,0.124,0.328,0.198,0.49c0.063,0.162,0.123,0.324,0.195,0.483   c0.063,0.161,0.122,0.324,0.195,0.483c0.064,0.164,0.125,0.328,0.198,0.49c0.063,0.162,0.123,0.324,0.196,0.484   c0.063,0.161,0.122,0.322,0.194,0.481c0.064,0.163,0.124,0.327,0.198,0.489c0.063,0.162,0.123,0.324,0.195,0.484   c0.063,0.161,0.122,0.324,0.195,0.482c0.064,0.164,0.125,0.328,0.198,0.49c0.063,0.162,0.123,0.325,0.196,0.485   c0.063,0.161,0.122,0.322,0.194,0.481c0.064,0.164,0.124,0.328,0.198,0.49c0.063,0.162,0.123,0.323,0.195,0.483   c0.063,0.161,0.122,0.324,0.195,0.483c0.064,0.164,0.125,0.328,0.198,0.49c0.063,0.161,0.123,0.324,0.196,0.484   c0.063,0.161,0.122,0.322,0.194,0.48c0.064,0.164,0.124,0.328,0.198,0.49c0.063,0.162,0.123,0.324,0.195,0.484   c0.063,0.161,0.122,0.324,0.195,0.482c0.064,0.164,0.125,0.328,0.198,0.49c0.063,0.162,0.123,0.325,0.196,0.485   c0.063,0.161,0.122,0.321,0.194,0.481c0.064,0.164,0.124,0.328,0.198,0.489c0.063,0.162,0.123,0.324,0.195,0.484   c0.063,0.161,0.122,0.323,0.195,0.483c0.064,0.164,0.125,0.328,0.198,0.489c0.063,0.162,0.123,0.325,0.196,0.485   c0.063,0.161,0.122,0.322,0.194,0.48c0.063,0.164,0.123,0.327,0.197,0.488c0.064,0.163,0.124,0.326,0.197,0.487   c0.063,0.161,0.122,0.321,0.194,0.481c0.064,0.164,0.125,0.327,0.198,0.489c0.063,0.162,0.123,0.325,0.196,0.485   c0.063,0.16,0.122,0.322,0.194,0.48c0.063,0.163,0.123,0.327,0.197,0.488c0.064,0.163,0.124,0.327,0.197,0.486   c0.063,0.162,0.122,0.322,0.194,0.481c0.064,0.164,0.125,0.328,0.198,0.49c0.063,0.162,0.123,0.325,0.196,0.485   c0.063,0.16,0.122,0.322,0.194,0.48c0.063,0.163,0.123,0.327,0.197,0.488c0.064,0.163,0.124,0.326,0.197,0.486   c0.063,0.162,0.122,0.322,0.194,0.481c0.064,0.164,0.125,0.328,0.198,0.49c0.063,0.162,0.123,0.325,0.196,0.485   c0.063,0.16,0.121,0.32,0.193,0.479c0.064,0.164,0.125,0.33,0.199,0.492c0.064,0.162,0.123,0.324,0.196,0.484   c0.063,0.162,0.122,0.322,0.194,0.481c0.064,0.164,0.125,0.328,0.198,0.49c0.063,0.161,0.123,0.325,0.196,0.485   c0.063,0.159,0.121,0.32,0.193,0.479c0.064,0.165,0.125,0.33,0.199,0.492c0.007,0.019,0.016,0.037,0.023,0.057   C49.062,126.66,56.374,128,64,128C90.229,128,112.759,112.215,122.645,89.633z"/>
	<g>
		<path style="fill:#F5F5F5;" d="M46.481,66.893l10.558,23.227l-0.905,1.169l2.193,0.435l-0.919-1.912l0.063-0.082l2.081,0.412    l-0.92-1.914l0.062-0.08l2.084,0.414l-0.922-1.918l0.059-0.076l2.087,0.412l-0.923-1.92l0.057-0.074l2.09,0.414l-0.924-1.924    l0.056-0.072l2.093,0.416l-0.926-1.926l0.054-0.072l2.096,0.416l-0.927-1.93l0.052-0.067l2.101,0.416l-0.93-1.933l0.051-0.064    l2.104,0.417l-0.93-1.935l0.048-0.063l2.106,0.417l-0.933-1.938l0.046-0.062l2.11,0.417l-0.933-1.941l0.045-0.058l2.112,0.418    l-0.935-1.944l0.043-0.056l2.115,0.418l-0.936-1.947l0.042-0.053l2.119,0.419l-0.937-1.95l0.039-0.052l2.123,0.42l-0.938-1.953    l0.038-0.049l2.125,0.42l-0.94-1.956l0.036-0.046l2.129,0.421l-0.941-1.958l0.033-0.045l2.133,0.422l-0.943-1.962l0.031-0.042    l2.136,0.423l-0.945-1.965l0.031-0.04l2.14,0.423l-0.947-1.967l0.029-0.038l2.143,0.424l-0.947-1.971l0.027-0.035l2.145,0.424    l-0.949-1.974l0.025-0.033l2.148,0.425l-0.951-1.977l0.022-0.03l2.152,0.426l-0.952-1.98l0.021-0.028l2.154,0.427l-0.953-1.982    l0.021-0.025l2.157,0.427l-0.955-1.986l0.019-0.022l2.162,0.427l-0.956-1.989l0.018-0.021l2.164,0.428l-0.959-1.991l0.016-0.019    l2.167,0.429l-0.959-1.994l0.013-0.017l2.171,0.43l-0.96-1.998l0.012-0.014l2.174,0.43l-0.961-2l0.008-0.012l2.178,0.431    l-0.963-2.003l0.007-0.009l2.265,0.515l-0.883-1.924l0.006-0.006l2.273,0.521l-0.876-1.919l0.004-0.004l1.923,0.169l-1.23-2.276    l0.002-0.001l2.281,0.523l-0.879-1.926c0,0-7.072-7.071-8.486-8.485s-2.828-1.414-4.242,0    C77.593,35.779,46.481,66.893,46.481,66.893z"/>
		<path style="fill:#263740;" d="M29.686,78.03c-3.884,3.884-3.622,9.456,0.262,13.342l8.439,8.438    c3.885,3.885,10.042,4.73,13.926,0.848l7.033-7.033L45.158,62.558L29.686,78.03z M49.794,91.863L46.657,95    c-0.774,0.773-1.835-0.068-2.612-0.846l-8.439-8.439c-0.774-0.773-1.036-1.254-0.262-2.027l7.357-7.357L49.794,91.863z"/>
		<g>
			<path style="fill:#1E2C33;" d="M44.044,94.154l-8.439-8.439c-0.774-0.773-1.036-1.254-0.262-2.027l-1.506,1.506     c-0.774,0.773-0.421,1.162,0.354,1.937l8.439,8.438c0.778,0.777,1.747,1.713,2.521,0.938l1.506-1.506     C45.882,95.773,44.822,94.932,44.044,94.154z"/>
			<polygon style="fill:#1E2C33;" points="43.652,64.063 57.84,95.13 59.346,93.625 45.158,62.557    "/>
		</g>
	</g>
</g>
</svg>
