<svg  viewBox="0 0 278 211" fill="none" xmlns="http://www.w3.org/2000/svg">
<path opacity="0.1" fill-rule="evenodd" clip-rule="evenodd" d="M18.3459 166.803L92.528 210L277.023 102.863L202.84 59.6667L18.3459 166.803Z" fill="#453560"/>
<path fill-rule="evenodd" clip-rule="evenodd" d="M40.2793 153.844C39.4476 155.194 39.3849 156.713 40.1408 157.236C40.5424 157.515 41.0941 157.456 41.6473 157.137C42.1355 156.856 42.6253 156.373 43.0145 155.74L60.1953 127.857C60.6054 127.192 60.8468 126.45 60.8623 125.803C60.877 125.156 60.6657 124.66 60.2773 124.429L47.6422 116.927L42.0899 120.128C42.1835 120.294 42.3003 120.438 42.4582 120.531L55.891 128.508L40.2793 153.844Z" fill="#E0BDCD"/>
<path fill-rule="evenodd" clip-rule="evenodd" d="M30.6979 170.328C29.0545 168.689 28.0827 166.061 28.0827 162.609C28.0827 153.974 34.1558 143.474 41.6471 139.158C44.5648 137.475 47.266 136.985 49.4781 137.516C50.7222 137.816 51.8117 138.44 52.6968 139.361L58.0379 142.422L55.1836 147.607C54.9205 155.523 49.7605 164.804 43.1566 169.454L39.6122 175.892L33.1971 171.888C32.2531 171.564 31.4121 171.04 30.6979 170.328Z" fill="#D8B4C6"/>
<path fill-rule="evenodd" clip-rule="evenodd" d="M35.9142 167.3C35.9142 175.935 41.9873 179.435 49.4779 175.117C56.9692 170.8 63.0422 160.3 63.0422 151.665C63.0422 143.03 56.9692 139.53 49.4779 143.847C41.9873 148.165 35.9142 158.665 35.9142 167.3Z" fill="#F2D1CF"/>
<path fill-rule="evenodd" clip-rule="evenodd" d="M41.7554 163.933C41.7554 168.849 45.2132 170.842 49.4781 168.384C53.7437 165.926 57.2007 159.948 57.2007 155.032C57.2007 150.115 53.7437 148.123 49.4781 150.58C45.2132 153.039 41.7554 159.017 41.7554 163.933Z" fill="#E0BDCD"/>
<path fill-rule="evenodd" clip-rule="evenodd" d="M49.4788 161.827C49.9671 161.546 50.4568 161.063 50.846 160.43L68.0268 132.548C68.4369 131.882 68.6776 131.141 68.693 130.493C68.7085 129.847 68.4973 129.35 68.1081 129.119L53.1873 120.26C52.3989 119.792 51.1114 120.523 50.3106 121.893C49.5098 123.263 49.5005 124.753 50.2897 125.222L63.7225 133.198L48.1101 158.535C47.2783 159.884 47.2164 161.403 47.9724 161.927C48.3732 162.206 48.9256 162.146 49.4788 161.827Z" fill="#FFE6DB"/>
<path fill-rule="evenodd" clip-rule="evenodd" d="M256.864 70.961V60.7973L182.467 18.2772V28.4402L256.864 70.961Z" fill="#10768E"/>
<path fill-rule="evenodd" clip-rule="evenodd" d="M96.9956 185.835C96.1639 187.186 96.1012 188.704 96.8571 189.228C97.2587 189.507 97.8104 189.447 98.3636 189.128C98.8518 188.847 99.3416 188.364 99.7308 187.732L116.912 159.849C117.322 159.184 117.563 158.442 117.579 157.794C117.593 157.148 117.382 156.651 116.994 156.42L104.359 148.918L98.8062 152.12C98.8998 152.286 99.0166 152.429 99.1745 152.523L112.607 160.499L96.9956 185.835Z" fill="#E0BDCD"/>
<path fill-rule="evenodd" clip-rule="evenodd" d="M233.745 90.7588L219.056 83.5031C218.86 83.4065 218.711 83.2474 218.604 83.0482L224.364 79.7254L238.138 86.5277C238.556 86.7339 238.791 87.226 238.788 87.884C238.785 88.5429 238.542 89.3075 238.121 89.9918L220.94 117.874C220.551 118.507 220.061 118.99 219.573 119.271C219.019 119.59 218.468 119.65 218.066 119.371C217.31 118.847 217.373 117.328 218.205 115.978L233.745 90.7588Z" fill="#E0BDCD"/>
<path fill-rule="evenodd" clip-rule="evenodd" d="M182.859 18.5047L1.17462 123.258V133.188L182.859 28.4344V18.5047Z" fill="#1D8CAA"/>
<path fill-rule="evenodd" clip-rule="evenodd" d="M236.382 54.6846V78.1548L245.418 73.4642V49.994L236.382 54.6846Z" fill="#FFE6DB"/>
<path fill-rule="evenodd" clip-rule="evenodd" d="M85.9434 141.458V164.928L94.0754 160.237V136.768L85.9434 141.458Z" fill="#FFE6DB"/>
<path fill-rule="evenodd" clip-rule="evenodd" d="M71.1042 155.142L267.436 41.7538L196.332 0.773773L9.15527e-05 114.163L71.1042 155.142Z" fill="#FFC281"/>
<path fill-rule="evenodd" clip-rule="evenodd" d="M71.1042 158.419V155.143L9.15527e-05 114.163V117.439L71.1042 158.419Z" fill="#FFDCC0"/>
<path fill-rule="evenodd" clip-rule="evenodd" d="M267.436 41.7537L71.1042 155.142V158.419L267.436 45.0301V41.7537Z" fill="#E2A66F"/>
<path fill-rule="evenodd" clip-rule="evenodd" d="M257.164 61.0121L75.1011 165.766V175.695L257.164 70.9418V61.0121Z" fill="#1EB59C"/>
<path fill-rule="evenodd" clip-rule="evenodd" d="M73.117 141.155L249.902 39.2669L191.577 5.65225L14.792 107.54L73.117 141.155Z" fill="#5FEDCB"/>
<path fill-rule="evenodd" clip-rule="evenodd" d="M73.117 148.973V141.155L14.792 107.54V115.358L73.117 148.973Z" fill="#43DCBC"/>
<path fill-rule="evenodd" clip-rule="evenodd" d="M75.1795 175.859V165.695L1.17468 123.175V133.338L75.1795 175.859Z" fill="#43DCBC"/>
<path fill-rule="evenodd" clip-rule="evenodd" d="M249.902 39.2672L73.1173 141.155V148.973L249.902 47.0851V39.2672Z" fill="#1EB59C"/>
<path fill-rule="evenodd" clip-rule="evenodd" d="M87.4146 202.319C85.7712 200.68 84.7994 198.052 84.7994 194.601C84.7994 185.965 90.8724 175.466 98.363 171.149C101.282 169.467 103.982 168.976 106.194 169.508C107.439 169.807 108.528 170.431 109.413 171.353L114.755 174.414L111.9 179.599C111.636 187.514 106.477 196.796 99.8725 201.445L96.3288 207.883L89.9138 203.879C88.9698 203.555 88.1288 203.032 87.4146 202.319Z" fill="#D8B4C6"/>
<path fill-rule="evenodd" clip-rule="evenodd" d="M92.6305 199.291C92.6305 207.926 98.7036 211.426 106.194 207.109C113.685 202.791 119.759 192.291 119.759 183.656C119.759 175.022 113.685 171.521 106.194 175.839C98.7036 180.156 92.6305 190.656 92.6305 199.291Z" fill="#F2D1CF"/>
<path fill-rule="evenodd" clip-rule="evenodd" d="M98.4717 195.925C98.4717 200.841 101.93 202.834 106.194 200.376C110.46 197.917 113.917 191.939 113.917 187.023C113.917 182.107 110.46 180.114 106.194 182.572C101.93 185.03 98.4717 191.008 98.4717 195.925Z" fill="#E0BDCD"/>
<path fill-rule="evenodd" clip-rule="evenodd" d="M106.195 193.819C106.683 193.538 107.173 193.054 107.562 192.421L124.743 164.539C125.153 163.874 125.394 163.132 125.409 162.485C125.425 161.838 125.214 161.342 124.824 161.111L109.904 152.251C109.115 151.784 107.828 152.514 107.027 153.885C106.226 155.255 106.217 156.745 107.006 157.213L120.439 165.19L104.826 190.526C103.995 191.875 103.933 193.395 104.689 193.918C105.089 194.197 105.642 194.138 106.195 193.819Z" fill="#FFE6DB"/>
<path fill-rule="evenodd" clip-rule="evenodd" d="M208.994 131.623C207.351 129.984 206.379 127.357 206.379 123.905C206.379 115.271 212.452 104.77 219.943 100.453C222.861 98.7712 225.561 98.2807 227.774 98.8129C229.018 99.1118 230.108 99.7359 230.993 100.657L236.334 103.719L233.48 108.903C233.217 116.819 228.057 126.1 221.453 130.751L217.908 137.188L211.493 133.184C210.549 132.86 209.708 132.336 208.994 131.623Z" fill="#D8B4C6"/>
<path fill-rule="evenodd" clip-rule="evenodd" d="M214.707 128.934C214.707 137.569 220.78 141.069 228.271 136.751C235.762 132.434 241.836 121.934 241.836 113.299C241.836 104.664 235.762 101.164 228.271 105.482C220.78 109.799 214.707 120.299 214.707 128.934Z" fill="#F2D1CF"/>
<path fill-rule="evenodd" clip-rule="evenodd" d="M220.548 125.567C220.548 130.484 224.006 132.476 228.271 130.019C232.537 127.56 235.994 121.582 235.994 116.666C235.994 111.75 232.537 109.757 228.271 112.215C224.006 114.673 220.548 120.651 220.548 125.567Z" fill="#E0BDCD"/>
<path fill-rule="evenodd" clip-rule="evenodd" d="M225.898 124.061C225.142 123.537 225.204 122.018 226.036 120.669L241.577 95.4492L226.887 88.1943C226.063 87.788 226.015 86.3313 226.78 84.9418C227.544 83.5523 228.832 82.7552 229.656 83.1615L245.968 91.2182C246.386 91.4244 246.622 91.9164 246.619 92.5752C246.616 93.2333 246.374 93.9979 245.952 94.6823L228.771 122.564C228.381 123.197 227.892 123.68 227.404 123.962C226.85 124.281 226.299 124.34 225.898 124.061Z" fill="#FFE6DB"/>
</svg>
