<svg width="789" height="616" viewBox="0 0 789 616" fill="none" xmlns="http://www.w3.org/2000/svg">
<!-- <rect width="789" height="616" fill="#E5E5E5"/> -->
<g style="mix-blend-mode:color-burn">
<path d="M197.5 0L244.087 145.106H394.844L272.879 234.787L319.465 379.894L197.5 290.213L75.5346 379.894L122.121 234.787L0.155777 145.106H150.913L197.5 0Z" fill="#06F31E"/>
</g>
<g style="mix-blend-mode:color-burn">
<g style="mix-blend-mode:color-burn">
<path d="M591.344 0L637.931 145.106H788.688L666.723 234.787L713.309 379.894L591.344 290.213L469.379 379.894L515.965 234.787L394 145.106H544.757L591.344 0Z" fill="#ECFE1F"/>
</g>
</g>
<g style="mix-blend-mode:color-burn">
<g style="mix-blend-mode:color-burn">
<g style="mix-blend-mode:color-burn">
<path d="M394.344 236L440.931 381.106H591.688L469.723 470.787L516.309 615.894L394.344 526.213L272.379 615.894L318.965 470.787L197 381.106H347.757L394.344 236Z" fill="#FF2727"/>
</g>
</g>
</g>
</svg>
