<svg width="51" height="25" viewBox="0 0 51 25" fill="none" xmlns="http://www.w3.org/2000/svg">
<rect width="51" height="25" />
<path d="M47.5 1H3.5C2.11929 1 1 2.11929 1 3.5C1 4.88071 2.11929 6 3.5 6H47.5C48.8807 6 50 4.88071 50 3.5C50 2.11929 48.8807 1 47.5 1Z" fill="#4e4f50" stroke="black"/>
<path d="M47.5 19H3.5C2.11929 19 1 20.1193 1 21.5C1 22.8807 2.11929 24 3.5 24H47.5C48.8807 24 50 22.8807 50 21.5C50 20.1193 48.8807 19 47.5 19Z" fill="#4e4f50" stroke="black"/>
<path d="M47.5 10H3.5C2.11929 10 1 11.1193 1 12.5C1 13.8807 2.11929 15 3.5 15H47.5C48.8807 15 50 13.8807 50 12.5C50 11.1193 48.8807 10 47.5 10Z" fill="#4e4f50" stroke="black"/>
</svg>
