<svg id="Capa_1" enable-background="new 0 0 512.001 512.001" height="512" viewBox="0 0 512.001 512.001" width="512" xmlns="http://www.w3.org/2000/svg"><g><path d="m506.486 423.381c-5.744-4.69-24.486-22.037-24.486-48.381s18.742-43.691 24.486-48.38c4.914-4.011 6.773-10.68 4.644-16.655-2.13-5.975-7.787-9.965-14.13-9.965h-117.098c7.005-10.565 11.098-23.222 11.098-36.821 0-15.115-5.2-29.94-14.643-41.744l-65.357-81.696v-109.739h15c8.284 0 15-6.716 15-15s-6.716-15-15-15h-140c-8.284 0-15 6.716-15 15s6.716 15 15 15h15v109.738l-65.357 81.697c-9.443 11.804-14.643 26.628-14.643 41.744 0 13.599 4.093 26.256 11.098 36.822h-57.098c-41.355 0-75 33.645-75 75s33.645 75 75 75h15v47c0 5.682 3.21 10.875 8.292 13.417 5.081 2.541 11.162 1.992 15.708-1.417l31-23.25 31 23.249c2.647 1.985 5.814 3 9.002 3 2.286 0 4.584-.522 6.706-1.584 5.082-2.54 8.292-7.734 8.292-13.416v-47h297c6.343 0 12-3.99 14.13-9.965 2.129-5.975.269-12.643-4.644-16.654zm-225.486-393.381v115c0 3.406 1.159 6.71 3.287 9.371l27.399 34.249c-18.295-1.737-30.933-4.893-44.048-8.172-14.88-3.72-30.133-7.53-53.307-9.349l13.382-16.728c2.128-2.66 3.287-5.964 3.287-9.371v-115zm-130 233.179c0-8.329 2.866-16.499 8.069-23.002l32.094-40.118c33.393.545 50.821 4.9 69.199 9.494 19.323 4.83 39.269 9.815 76.383 10.391l16.186 20.232c5.203 6.504 8.069 14.673 8.069 23.002 0 20.304-16.518 36.822-36.822 36.822h-136.356c-20.304 0-36.822-16.518-36.822-36.821zm-76 66.821h389.711c-4.967 8.327-9.277 18.381-11.366 30h-420.765c6.192-17.458 22.865-30 42.42-30zm0 90c-19.555 0-36.228-12.541-42.42-30h57.42v30zm95 47-16-12c-2.667-2-5.833-3-9-3s-6.333 1-9 3l-16 12v-77h50zm30-47v-30h253.345c2.089 11.619 6.399 21.673 11.366 30z"/></g></svg>