<svg width="29" height="11" viewBox="0 0 29 11" fill="none" xmlns="http://www.w3.org/2000/svg">
<path d="M9.50781 7.94922H5.91211L5.22852 10H3.04785L6.75293 0.046875H8.65332L12.3789 10H10.1982L9.50781 7.94922ZM6.46582 6.28809H8.9541L7.70312 2.5625L6.46582 6.28809Z" fill="black"/>
<path d="M12.8711 2.05078L16.4668 2.05078L17.1504 0H19.3311L15.626 9.95312L13.7256 9.95312L10 0H12.1807L12.8711 2.05078ZM15.9131 3.71191L13.4248 3.71191L14.6758 7.4375L15.9131 3.71191Z" fill="black"/>
<path d="M3.51074 6.04004C3.31868 6.014 3.14941 6.00098 3.00293 6.00098C2.46908 6.00098 2.11914 6.18164 1.95312 6.54297V10H0.541992V4.7168H1.875L1.91406 5.34668C2.19727 4.86165 2.58952 4.61914 3.09082 4.61914C3.24707 4.61914 3.39355 4.6403 3.53027 4.68262L3.51074 6.04004ZM8.37402 3.41797V4.7168H9.27734V5.75195H8.37402V8.38867C8.37402 8.58398 8.41146 8.72396 8.48633 8.80859C8.5612 8.89323 8.70443 8.93555 8.91602 8.93555C9.07227 8.93555 9.21061 8.92415 9.33105 8.90137V9.9707C9.05436 10.0553 8.76953 10.0977 8.47656 10.0977C7.48698 10.0977 6.98242 9.59798 6.96289 8.59863V5.75195H6.19141V4.7168H6.96289V3.41797H8.37402ZM13.2275 9.46289C12.8792 9.88607 12.3975 10.0977 11.7822 10.0977C11.2158 10.0977 10.7829 9.9349 10.4834 9.60938C10.1872 9.28385 10.0358 8.80697 10.0293 8.17871V4.7168H11.4404V8.12988C11.4404 8.68001 11.6911 8.95508 12.1924 8.95508C12.6709 8.95508 12.9997 8.78906 13.1787 8.45703V4.7168H14.5947V10H13.2666L13.2275 9.46289ZM18.6279 6.04004C18.4359 6.014 18.2666 6.00098 18.1201 6.00098C17.5863 6.00098 17.2363 6.18164 17.0703 6.54297V10H15.6592V4.7168H16.9922L17.0312 5.34668C17.3145 4.86165 17.7067 4.61914 18.208 4.61914C18.3643 4.61914 18.5107 4.6403 18.6475 4.68262L18.6279 6.04004ZM22.2266 10C22.1615 9.87305 22.1143 9.71517 22.085 9.52637C21.7432 9.90723 21.2988 10.0977 20.752 10.0977C20.2344 10.0977 19.8047 9.94792 19.4629 9.64844C19.1243 9.34896 18.9551 8.97135 18.9551 8.51562C18.9551 7.95573 19.1618 7.52604 19.5752 7.22656C19.9919 6.92708 20.5924 6.77572 21.377 6.77246H22.0264V6.46973C22.0264 6.22559 21.9629 6.03027 21.8359 5.88379C21.7122 5.7373 21.5153 5.66406 21.2451 5.66406C21.0075 5.66406 20.8203 5.72103 20.6836 5.83496C20.5501 5.94889 20.4834 6.10514 20.4834 6.30371H19.0723C19.0723 5.99772 19.1667 5.71452 19.3555 5.4541C19.5443 5.19368 19.8112 4.99023 20.1562 4.84375C20.5013 4.69401 20.8887 4.61914 21.3184 4.61914C21.9694 4.61914 22.4854 4.78353 22.8662 5.1123C23.2503 5.43783 23.4424 5.89681 23.4424 6.48926V8.7793C23.4456 9.2806 23.5156 9.65983 23.6523 9.91699V10H22.2266ZM21.0596 9.01855C21.2679 9.01855 21.46 8.97298 21.6357 8.88184C21.8115 8.78743 21.9417 8.66211 22.0264 8.50586V7.59766H21.499C20.7926 7.59766 20.4167 7.8418 20.3711 8.33008L20.3662 8.41309C20.3662 8.58887 20.4281 8.73372 20.5518 8.84766C20.6755 8.96159 20.8447 9.01855 21.0596 9.01855ZM27.3877 8.54004C27.3877 8.36751 27.3014 8.23242 27.1289 8.13477C26.9596 8.03385 26.6862 7.94434 26.3086 7.86621C25.0521 7.60254 24.4238 7.06868 24.4238 6.26465C24.4238 5.7959 24.6175 5.40527 25.0049 5.09277C25.3955 4.77702 25.9049 4.61914 26.5332 4.61914C27.2038 4.61914 27.7393 4.77702 28.1396 5.09277C28.5433 5.40853 28.7451 5.81868 28.7451 6.32324H27.334C27.334 6.12142 27.2689 5.9554 27.1387 5.8252C27.0085 5.69173 26.805 5.625 26.5283 5.625C26.2907 5.625 26.1068 5.67871 25.9766 5.78613C25.8464 5.89355 25.7812 6.03027 25.7812 6.19629C25.7812 6.35254 25.8545 6.47949 26.001 6.57715C26.1507 6.67155 26.4014 6.75456 26.7529 6.82617C27.1045 6.89453 27.4007 6.97266 27.6416 7.06055C28.387 7.33398 28.7598 7.80762 28.7598 8.48145C28.7598 8.96322 28.5531 9.35384 28.1396 9.65332C27.7262 9.94954 27.1924 10.0977 26.5381 10.0977C26.0954 10.0977 25.7015 10.0195 25.3564 9.86328C25.0146 9.70378 24.7461 9.4873 24.5508 9.21387C24.3555 8.93717 24.2578 8.63932 24.2578 8.32031H25.5957C25.6087 8.57096 25.7015 8.76302 25.874 8.89648C26.0465 9.02995 26.2777 9.09668 26.5674 9.09668C26.8376 9.09668 27.041 9.04622 27.1777 8.94531C27.3177 8.84115 27.3877 8.70605 27.3877 8.54004Z" fill="#1525B7"/>
</svg>
